<svg width="563" height="248" viewBox="0 0 563 248" fill="none" xmlns="http://www.w3.org/2000/svg">
<g clip-path="url(#clip0)">
<path d="M100.748 36H92V64.5536V75H124V59.4464C124 46.4464 113.64 36 100.748 36Z" fill="white"/>
<path d="M63.1694 23C62.4726 23 61.7759 23 61.0792 23H42.7322C19.0437 23 1.41748e-05 41.8197 1.41748e-05 65.2295V69.8197L4.41257 72.3443C30.1913 86.5738 46.2158 114.803 46.2158 146.016C46.2158 148.082 46.2158 150.148 45.9836 151.984C45.7514 154.049 45.5191 156.344 45.2869 158.639V158.869C45.0547 160.246 44.8224 161.623 44.5901 163C67.1175 161.852 85 143.492 85 121V93.459V74.8689V37.459C85 36.082 84.5355 23 63.1694 23Z" fill="white"/>
<path d="M1.41144e-05 80V162.846V212C9.01876 206.923 16.65 200 22.8937 191.231C29.6 181.538 34.225 170 36.075 157.308C36.075 157.308 36.075 157.308 36.075 157.077C36.3063 155.231 36.5375 153.154 36.7687 151.077C36.7687 149.231 37 147.615 37 145.769C36.7688 117.154 21.7375 92 1.41144e-05 80Z" fill="white"/>
<path d="M212 84H228C229.6 84 230.667 84.3333 231.2 85C231.867 85.5333 232.2 86.5333 232.2 88V101.8C232.2 104.6 230.8 106 228 106H212C210.533 106 209.8 106.733 209.8 108.2V181.8C209.8 184.6 208.333 186 205.4 186H188.6C185.8 186 184.4 184.6 184.4 181.8V108.2C184.4 106.733 183.6 106 182 106H172.8C170 106 168.6 104.6 168.6 101.8V88C168.6 86.4 168.867 85.3333 169.4 84.8C170.067 84.2667 171.2 84 172.8 84H182C183.6 84 184.4 83.2667 184.4 81.8V78C184.4 67.4667 187.133 59.4 192.6 53.8C198.2 48.2 206.267 45.4 216.8 45.4H228.2C229.8 45.4 230.867 45.7333 231.4 46.4C231.933 46.9333 232.2 47.9333 232.2 49.4V63.2C232.2 66 230.867 67.4 228.2 67.4H220.8C216.533 67.4 213.6 68.3333 212 70.2C210.533 71.9333 209.8 74.9333 209.8 79.2V81.8C209.8 83.2667 210.533 84 212 84ZM267.903 186H250.903C248.103 186 246.703 184.6 246.703 181.8V49.6C246.703 46.8 248.103 45.4 250.903 45.4H267.903C270.703 45.4 272.103 46.8 272.103 49.6V181.8C272.103 184.6 270.703 186 267.903 186ZM343.917 186H326.117C315.584 186 307.451 183.2 301.717 177.6C295.984 172 293.117 163.933 293.117 153.4V116.6C293.117 106.067 295.984 98 301.717 92.4C307.451 86.8 315.584 84 326.117 84H343.917C354.317 84 362.384 86.8667 368.117 92.6C373.984 98.2 376.917 106.2 376.917 116.6V153.4C376.917 163.8 373.984 171.867 368.117 177.6C362.384 183.2 354.317 186 343.917 186ZM329.917 164.2H340.117C344.384 164.2 347.384 163.333 349.117 161.6C350.984 159.867 351.917 156.867 351.917 152.6V117.4C351.917 113.133 350.984 110.133 349.117 108.4C347.384 106.667 344.384 105.8 340.117 105.8H329.917C325.651 105.8 322.651 106.667 320.917 108.4C319.184 110.133 318.317 113.133 318.317 117.4V152.6C318.317 156.867 319.184 159.867 320.917 161.6C322.651 163.333 325.651 164.2 329.917 164.2ZM461.875 168.2V182C461.875 183.467 461.542 184.533 460.875 185.2C460.342 185.733 459.275 186 457.675 186H427.875C417.342 186 409.208 183.2 403.475 177.6C397.742 172 394.875 163.933 394.875 153.4V116.6C394.875 106.067 397.742 98 403.475 92.4C409.208 86.8 417.342 84 427.875 84H457.675C460.475 84 461.875 85.4 461.875 88.2V102C461.875 103.467 461.542 104.533 460.875 105.2C460.342 105.733 459.275 106 457.675 106H431.875C427.742 106 424.742 106.933 422.875 108.8C421.142 110.533 420.275 113.533 420.275 117.8V152.2C420.275 156.467 421.142 159.533 422.875 161.4C424.742 163.133 427.742 164 431.875 164H457.675C460.475 164 461.875 165.4 461.875 168.2ZM537.502 84H556.902C558.502 84 559.568 84.4667 560.102 85.4C560.635 86.3333 560.435 87.5333 559.502 89L532.902 132.8V133.6L560.702 181C561.502 182.333 561.568 183.533 560.902 184.6C560.235 185.533 559.035 186 557.302 186H540.102C537.835 186 536.168 185.733 535.102 185.2C534.168 184.667 533.168 183.533 532.102 181.8L506.702 137.2C505.502 135.067 505.502 132.867 506.702 130.6L530.702 88C532.168 85.3333 534.435 84 537.502 84ZM500.302 186H483.302C480.502 186 479.102 184.6 479.102 181.8V49.6C479.102 46.8 480.502 45.4 483.302 45.4H500.302C503.102 45.4 504.502 46.8 504.502 49.6V181.8C504.502 184.6 503.102 186 500.302 186Z" fill="white"/>
</g>
<defs>
<clipPath id="clip0">
<rect width="563" height="248" fill="white"/>
</clipPath>
</defs>
</svg>
