<svg width="1579" height="291" viewBox="0 0 1579 291" fill="none" xmlns="http://www.w3.org/2000/svg">
<g clip-path="url(#clip0)">
<rect x="24" y="19" width="261" height="254" rx="51" fill="black" stroke="#F9F9F9" stroke-width="22"/>
<g clip-path="url(#clip1)">
<rect x="57" y="51" width="196" height="176" fill="black"/>
<path d="M158.195 222.946C156.212 225.122 152.788 225.122 150.805 222.946L58.3047 121.462C57.4653 120.541 57 119.34 57 118.094L57 55.75C57 52.9886 59.2386 50.75 62 50.75L247.939 50.75C250.701 50.75 252.939 52.9886 252.939 55.75L252.939 117.063C252.939 118.309 252.474 119.51 251.635 120.431L158.195 222.946Z" fill="#3ECF8E" fill-opacity="0.6"/>
<path d="M66.4874 225.368C65.5399 226.408 64.1985 227 62.792 227L62 227C59.2386 227 57 224.761 57 222L57 55.75C57 52.9886 59.2386 50.75 62 50.75L214.325 50.75C218.669 50.75 220.946 55.9079 218.02 59.1182L66.4874 225.368Z" fill="#3ECF8E" fill-opacity="0.6"/>
<path d="M243.66 225.368C244.608 226.408 245.949 227 247.356 227L248.148 227C250.909 227 253.148 224.761 253.148 222L253.148 55.75C253.148 52.9886 250.909 50.75 248.148 50.75L95.8227 50.75C91.4789 50.75 89.2012 55.9079 92.1274 59.1182L243.66 225.368Z" fill="#3ECF8E" fill-opacity="0.6"/>
<path d="M57 80.5C57 64.2076 70.2076 51 86.5 51H57V80.5Z" fill="black"/>
<path d="M253 80.5C253 64.2076 239.792 51 223.5 51H253V80.5Z" fill="black"/>
</g>
<path id="text" fill="#1f1f1f" d="M359.467 196.449C360.805 208.937 372.178 230.345 405.182 230.345C433.949 230.345 447.775 212.059 447.775 194.219C447.775 178.163 436.848 165.006 415.217 160.546L399.607 157.201C393.586 156.086 389.572 152.741 389.572 147.389C389.572 141.145 395.816 136.462 403.621 136.462C416.109 136.462 420.792 144.713 421.684 151.18L446.437 145.605C445.099 133.786 434.618 113.939 403.398 113.939C379.76 113.939 362.366 130.218 362.366 149.842C362.366 165.229 371.955 177.94 393.14 182.623L407.635 185.968C416.109 187.752 419.454 191.766 419.454 196.672C419.454 202.47 414.771 207.599 404.959 207.599C392.025 207.599 385.558 199.571 384.889 190.874L359.467 196.449ZM501.281 162.553C501.95 150.511 509.309 141.145 521.797 141.145C536.069 141.145 542.09 150.734 542.09 162.999V227H571.749V157.87C571.749 133.786 558.815 114.385 530.94 114.385C520.459 114.385 508.417 117.953 501.281 126.427V65.548H471.622V227H501.281V162.553ZM623.482 159.654C624.151 149.619 632.625 138.023 648.012 138.023C664.96 138.023 672.096 148.727 672.542 159.654H623.482ZM675.441 188.198C671.873 198.01 664.291 204.923 650.465 204.923C635.747 204.923 623.482 194.442 622.813 179.947H701.309C701.309 179.501 701.755 175.041 701.755 170.804C701.755 135.57 681.462 113.939 647.566 113.939C619.468 113.939 593.6 136.685 593.6 171.696C593.6 208.714 620.137 230.345 650.242 230.345C677.225 230.345 694.619 214.512 700.194 195.557L675.441 188.198ZM746.741 159.654C747.41 149.619 755.884 138.023 771.271 138.023C788.219 138.023 795.355 148.727 795.801 159.654H746.741ZM798.7 188.198C795.132 198.01 787.55 204.923 773.724 204.923C759.006 204.923 746.741 194.442 746.072 179.947H824.568C824.568 179.501 825.014 175.041 825.014 170.804C825.014 135.57 804.721 113.939 770.825 113.939C742.727 113.939 716.859 136.685 716.859 171.696C716.859 208.714 743.396 230.345 773.501 230.345C800.484 230.345 817.878 214.512 823.453 195.557L798.7 188.198ZM884.942 84.503H858.182V99.89C858.182 109.702 852.83 117.284 841.234 117.284H835.659V143.598H855.506V194.665C855.506 215.85 868.886 228.561 890.294 228.561C898.991 228.561 904.343 227 907.019 225.885V201.355C905.458 201.801 901.444 202.247 897.876 202.247C889.402 202.247 884.942 199.125 884.942 189.536V143.598H907.019V117.284H884.942V84.503ZM960.347 227V162.776C960.347 150.734 967.929 141.145 980.863 141.145C994.243 141.145 1000.26 150.065 1000.26 161.884V227H1029.7V162.776C1029.7 150.957 1037.28 141.145 1049.99 141.145C1063.6 141.145 1069.39 150.065 1069.39 161.884V227H1098.16V155.863C1098.16 126.427 1078.76 114.162 1058.47 114.162C1043.97 114.162 1032.38 119.068 1023.68 132.448C1018.1 120.629 1006.06 114.162 991.121 114.162C979.079 114.162 965.03 119.96 959.009 130.664V117.284H930.688V227H960.347ZM1149.84 159.654C1150.51 149.619 1158.98 138.023 1174.37 138.023C1191.32 138.023 1198.45 148.727 1198.9 159.654H1149.84ZM1201.8 188.198C1198.23 198.01 1190.65 204.923 1176.82 204.923C1162.1 204.923 1149.84 194.442 1149.17 179.947H1227.67C1227.67 179.501 1228.11 175.041 1228.11 170.804C1228.11 135.57 1207.82 113.939 1173.92 113.939C1145.83 113.939 1119.96 136.685 1119.96 171.696C1119.96 208.714 1146.49 230.345 1176.6 230.345C1203.58 230.345 1220.98 214.512 1226.55 195.557L1201.8 188.198ZM1288.04 84.503H1261.28V99.89C1261.28 109.702 1255.93 117.284 1244.33 117.284H1238.76V143.598H1258.6V194.665C1258.6 215.85 1271.98 228.561 1293.39 228.561C1302.09 228.561 1307.44 227 1310.12 225.885V201.355C1308.56 201.801 1304.54 202.247 1300.97 202.247C1292.5 202.247 1288.04 199.125 1288.04 189.536V143.598H1310.12V117.284H1288.04V84.503ZM1329.27 197.118C1329.27 214.289 1343.55 230.122 1366.96 230.122C1383.24 230.122 1393.72 222.54 1399.3 213.843C1399.3 218.08 1399.74 224.101 1400.41 227H1427.62C1426.95 223.209 1426.28 215.404 1426.28 209.606V155.64C1426.28 133.563 1413.35 113.939 1378.56 113.939C1349.12 113.939 1333.29 132.894 1331.5 150.065L1357.82 155.64C1358.71 146.051 1365.85 137.8 1378.78 137.8C1391.27 137.8 1397.29 144.267 1397.29 152.072C1397.29 155.863 1395.28 158.985 1389.04 159.877L1362.06 163.891C1343.77 166.567 1329.27 177.494 1329.27 197.118ZM1373.21 208.045C1363.62 208.045 1358.93 201.801 1358.93 195.334C1358.93 186.86 1364.95 182.623 1372.54 181.508L1397.29 177.717V182.623C1397.29 202.024 1385.69 208.045 1373.21 208.045ZM1485.83 227V65.548H1456.18V227H1485.83Z" />
</g>
<defs>
<clipPath id="clip0">
<rect width="1579" height="291" fill="white"/>
</clipPath>
<clipPath id="clip1">
<rect x="57" y="51" width="196" height="176" fill="white"/>
</clipPath>
</defs>
</svg>
